<svg width="428" height="442" viewBox="0 0 428 442" fill="none" xmlns="http://www.w3.org/2000/svg">
<path d="M213 0C242.53 27.4782 261 66.6828 261 110.201C261 153.719 242.529 192.923 213 220.401C183.471 192.923 165 153.719 165 110.201C165 66.6828 183.47 27.4782 213 0Z" fill="black"/>
<path d="M403.873 109.27C394.841 148.583 370.124 184.181 332.436 205.94C294.748 227.699 251.561 231.305 213 219.471C222.032 180.159 246.748 144.561 284.436 122.802C322.124 101.043 365.312 97.4362 403.873 109.27Z" fill="black"/>
<path d="M403.873 329.471C365.312 341.305 322.124 337.699 284.436 315.94C246.748 294.181 222.032 258.583 213 219.27C251.561 207.436 294.748 211.042 332.436 232.801C370.124 254.56 394.841 290.159 403.873 329.471Z" fill="black"/>
<path d="M213 441.103C183.47 413.624 165 374.42 165 330.901C165 287.383 183.471 248.179 213 220.701C242.529 248.179 261 287.383 261 330.901C261 374.42 242.53 413.624 213 441.103Z" fill="black"/>
<path d="M24 330.471C33.0321 291.159 57.749 255.56 95.437 233.801C133.125 212.042 176.312 208.436 214.873 220.27C205.841 259.583 181.125 295.181 143.437 316.94C105.749 338.699 62.5616 342.305 24 330.471Z" fill="black"/>
<path d="M24 109.27C62.5616 97.4362 105.749 101.043 143.437 122.802C181.125 144.561 205.841 180.159 214.873 219.471C176.312 231.305 133.125 227.699 95.437 205.94C57.749 184.181 33.0321 148.583 24 109.27Z" fill="black"/>
</svg>
